# xmcd CD database file
#
# Track frame offsets:
#	150
#	15989
#	30725
#	44784
#	60385
#	80099
#	96952
#	112463
#	126202
#	138985
#	157848
#	174050
#	190245
#	206940
#	227011
#
# Disc length: 3212 seconds
#
# Revision: 2
# Processed by: cddbd v1.5.2PL0 Copyright (c) Steve Scherf et al.
# Submitted via: CDex 1.70beta2
#
DISCID=cc0c8a0f
DTITLE=Chamras Saewataporn - Piano In The Garden
DYEAR=2000
DGENRE=New Age
TTITLE0=ผีเสื้อกับดอกไม้(Butterflies&Flowers)
TTITLE1=รุ้งกินน้ำ(Rainbow)
TTITLE2=นกกางเขนบ้าน(The Bulbul)
TTITLE3=เดินเล่นริมสวน(Strolling In The Garden)
TTITLE4=สายหมอก(Fog)
TTITLE5=แมลงปอเอย(Dragonfly)
TTITLE6=นกเจ้าโผบิน(Fly to imagination)
TTITLE7=คู่นก(The Couple Birds)
TTITLE8=ณ ยามเย็น(Evening)
TTITLE9=อาทิตย์อัสดง(Sundown)
TTITLE10=ผีเสื้อกับดอกไม้(Butterflies&Flowers)-More Natural Voice
TTITLE11=รุ้งกินน้ำ(Rainbow)-More Natural Voice
TTITLE12=เดินเล่นริมสวน(Strolling In The Garden)-More Natural Voice
TTITLE13=สายหมอก(Fog)-More Natural Voice
TTITLE14=ณ ยามเย็น(Evening)-More Natural Voice
EXTD=YEAR: 2000
EXTT0=
EXTT1=
EXTT2=
EXTT3=
EXTT4=
EXTT5=
EXTT6=
EXTT7=
EXTT8=
EXTT9=
EXTT10=
EXTT11=
EXTT12=
EXTT13=
EXTT14=
PLAYORDER=
